<svg xmlns="http://www.w3.org/2000/svg" viewBox="0 0 640 480">
  <defs>
    <clipPath id="cn-a">
      <path fill-opacity=".7" d="M-16 0h640v480H-16z"/>
    </clipPath>
  </defs>
  <g fill-rule="evenodd" clip-path="url(#cn-a)" transform="translate(16)">
    <path fill="#de2910" d="M-16 0h640v480H-16z"/>
    <path fill="#ffde00" d="m91.1 57.6 14.5 44.6H153l-38.4 28 14.7 44.5-38.3-28L52.7 175l14.5-44.5-38.4-28H76z"/>
    <path fill="#ffde00" d="M254 91.3 233.9 117l-30.1-4.1 18.8 24-11.5 28.6 28.6-11.5 24 18.8-4.1-30.1 25.8-20.1-30.2-4z"/>
    <path fill="#ffde00" d="m255.4 175.9-15.9 26.3-29.5-8.2 12.5 27.5-17.2 25.5 30.3-2.6 18.3 24.1 1.8-30.3 27.8-12-26.3-16z"/>
    <path fill="#ffde00" d="m224 259.7-4 30.1L194.2 269l-25.8 17.7 8-29.7-23.5-19.4 30.3-1.5 12.3-27.8 10.4 28.5 28.8-3.1z"/>
    <path fill="#ffde00" d="m154.6 289.8 11.6 28.5-24.1 18.6 30.2 4 16 25.8 4.1-30.1 27.5-12.3-26.1-16.2 4-30.1-25.7 17.8z"/>
  </g>
</svg>

